# xmcd
#
# Track frame offsets: 
#        150
#        26309
#        47045
#        82684
#        102107
#        140618
#        179012
#        215949
#
# Disc length: 3296 seconds
#
# Revision: 0
# Processed by: cddbd v1.5.2PL0 Copyright (c) Steve Scherf et al.
# Submitted via: ExactAudioCopy v0.99pb3
#
DISCID=690cde08
DTITLE=Polly O'Keary - Live At Sunbanks 2007
DYEAR=1900
DGENRE=Blues
TTITLE0=Lion's Den
TTITLE1=Way Down There
TTITLE2=Spoonful
TTITLE3=Possum In My Tree
TTITLE4=The Loudest Thing
TTITLE5=Wang Dang Doodle
TTITLE6=The Blues Is Alright
TTITLE7=Rollin' And Tumblin'
EXTD=
EXTT0=
EXTT1=
EXTT2=
EXTT3=
EXTT4=
EXTT5=
EXTT6=
EXTT7=
PLAYORDER=
